<?xml version="1.0" encoding="UTF-8"?>
<svg xmlns="http://www.w3.org/2000/svg" xmlns:xlink="http://www.w3.org/1999/xlink" width="3000.5" height="1091.5" viewBox="0 0 3000.5 1091.5">
<defs>
<clipPath id="clip-0">
<path clip-rule="nonzero" d="M 0.285156 381 L 3000.28125 381 L 3000.28125 1091.292969 L 0.285156 1091.292969 Z M 0.285156 381 "/>
</clipPath>
<clipPath id="clip-1">
<path clip-rule="nonzero" d="M 0.285156 469 L 3000.28125 469 L 3000.28125 1091.292969 L 0.285156 1091.292969 Z M 0.285156 469 "/>
</clipPath>
</defs>
<g clip-path="url(#clip-0)">
<path fill-rule="evenodd" fill="rgb(87.889099%, 53.90625%, 59.959412%)" fill-opacity="1" d="M 3000.28125 545.777344 C 2213.410156 682.644531 1594.300781 466.636719 766.894531 382.722656 C 575.328125 363.296875 193.921875 576.484375 0.285156 545.777344 L 0.285156 1091.292969 L 3000.28125 1091.292969 L 3000.28125 545.777344 "/>
</g>
<g clip-path="url(#clip-1)">
<path fill-rule="evenodd" fill="rgb(48.997498%, 18.089294%, 23.509216%)" fill-opacity="1" d="M 3000.28125 627.417969 C 2213.410156 764.285156 1601.089844 554.253906 773.691406 470.34375 C 582.125 450.914062 193.921875 658.128906 0.285156 627.417969 L 0.285156 1172.933594 L 3000.28125 1172.933594 L 3000.28125 627.417969 "/>
</g>
</svg>
